{
    "asset" : {
        "generator" : "Khronos glTF Blender I/O v3.4.50",
        "version" : "2.0"
    },
    "scene" : 0,
    "scenes" : [
        {
            "name" : "Scene",
            "nodes" : [
                0
            ]
        }
    ],
    "nodes" : [
        {
            "mesh" : 0,
            "name" : "Cylinder.005",
            "scale" : [
                1,
                0.07500000298023224,
                1
            ],
            "translation" : [
                0,
                1,
                0
            ]
        }
    ],
    "meshes" : [
        {
            "name" : "Cylinder.011",
            "primitives" : [
                {
                    "attributes" : {
                        "POSITION" : 0,
                        "TEXCOORD_0" : 1,
                        "NORMAL" : 2
                    },
                    "indices" : 3
                }
            ]
        }
    ],
    "accessors" : [
        {
            "bufferView" : 0,
            "componentType" : 5126,
            "count" : 3662,
            "max" : [
                1.1500000953674316,
                1,
                1.2000000476837158
            ],
            "min" : [
                -1.1500000953674316,
                -29.666667938232422,
                -1.1000001430511475
            ],
            "type" : "VEC3"
        },
        {
            "bufferView" : 1,
            "componentType" : 5126,
            "count" : 3662,
            "type" : "VEC2"
        },
        {
            "bufferView" : 2,
            "componentType" : 5126,
            "count" : 3662,
            "type" : "VEC3"
        },
        {
            "bufferView" : 3,
            "componentType" : 5123,
            "count" : 7128,
            "type" : "SCALAR"
        }
    ],
    "bufferViews" : [
        {
            "buffer" : 0,
            "byteLength" : 43944,
            "byteOffset" : 0,
            "target" : 34962
        },
        {
            "buffer" : 0,
            "byteLength" : 29296,
            "byteOffset" : 43944,
            "target" : 34962
        },
        {
            "buffer" : 0,
            "byteLength" : 43944,
            "byteOffset" : 73240,
            "target" : 34962
        },
        {
            "buffer" : 0,
            "byteLength" : 14256,
            "byteOffset" : 117184,
            "target" : 34963
        }
    ],
    "buffers" : [
        {
            "byteLength" : 131440,
            "uri" : "data:application/octet-stream;base64,"
        }
    ]
}
